<?xml version="1.0" encoding="UTF-8"?><svg id="Layer_2" xmlns="http://www.w3.org/2000/svg" viewBox="0 0 82.06 83.28"><defs><style>.cls-1{fill:#f6f1f0;}.cls-2{fill:#0d1b1e;}</style></defs><g id="Layer_1-2"><path class="cls-2" d="M41.58,2.95l2.43,5.91c1.27,3.09,5.25,3.94,7.67,1.64l4.63-4.4c3.44-3.27,9.02-.04,7.9,4.57l-1.51,6.21c-.79,3.25,1.93,6.27,5.25,5.84l6.34-.84c4.7-.62,7.32,5.27,3.7,8.34l-4.87,4.14c-2.55,2.16-2.12,6.21,.81,7.81l5.62,3.05c4.17,2.26,2.82,8.56-1.9,8.92l-6.37,.49c-3.33,.25-5.37,3.78-3.93,6.79l2.76,5.77c2.04,4.28-2.75,8.59-6.79,6.1l-5.44-3.35c-2.85-1.75-6.56-.1-7.17,3.19l-1.16,6.29c-.86,4.66-7.27,5.33-9.08,.95l-2.43-5.91c-1.27-3.09-5.25-3.94-7.67-1.64l-4.63,4.4c-3.44,3.27-9.02,.04-7.9-4.57l1.51-6.21c.79-3.25-1.93-6.27-5.25-5.84l-6.34,.84c-4.7,.62-7.32-5.27-3.7-8.34l4.87-4.14c2.55-2.16,2.12-6.21-.81-7.81l-5.62-3.05c-4.17-2.26-2.82-8.56,1.9-8.92l6.37-.49c3.33-.25,5.37-3.78,3.93-6.79l-2.76-5.77c-2.04-4.28,2.75-8.59,6.79-6.1l5.44,3.35c2.85,1.75,6.56,.1,7.17-3.19l1.16-6.29c.86-4.66,7.27-5.33,9.08-.95Z"/><g><path class="cls-1" d="M23.79,52.09c-.37,.04-.68-.04-.94-.25-.26-.2-.41-.48-.44-.81l-1.05-9.85,.32,.4-1.39,1.06c-.18,.14-.39,.22-.61,.24-.34,.04-.63-.06-.88-.29-.25-.23-.39-.49-.42-.78-.05-.44,.12-.8,.5-1.08l2.76-2.08c.21-.14,.48-.23,.82-.26s.63,.05,.87,.25,.38,.48,.41,.82l1.21,11.3c.04,.34-.05,.64-.27,.89-.22,.25-.51,.4-.89,.44Z"/><path class="cls-1" d="M32.56,51.35c-1.12,.12-2.1-.08-2.94-.59-.84-.51-1.52-1.27-2.04-2.29-.52-1.02-.85-2.22-1-3.6-.15-1.39-.08-2.64,.21-3.74,.29-1.1,.79-1.99,1.51-2.66,.71-.67,1.63-1.07,2.75-1.19,1.12-.12,2.1,.08,2.94,.59s1.52,1.27,2.03,2.28c.51,1.01,.85,2.22,1,3.61,.15,1.38,.07,2.62-.21,3.73-.29,1.11-.79,2-1.5,2.67-.71,.68-1.63,1.07-2.75,1.19Zm-.25-2.34c.55-.06,1-.28,1.36-.67,.36-.39,.61-.94,.76-1.66,.15-.72,.17-1.6,.05-2.64-.11-1.06-.32-1.92-.61-2.58-.3-.67-.66-1.15-1.09-1.45-.43-.3-.92-.43-1.47-.37-.54,.06-.99,.28-1.35,.67-.37,.39-.63,.94-.77,1.65-.15,.71-.17,1.6-.05,2.65,.11,1.04,.32,1.9,.61,2.57,.3,.67,.66,1.16,1.11,1.46,.44,.3,.93,.43,1.46,.37Z"/><path class="cls-1" d="M44.57,50.07c-1.12,.12-2.1-.08-2.94-.58-.84-.51-1.52-1.27-2.03-2.29-.52-1.02-.85-2.22-1-3.6-.15-1.39-.08-2.64,.21-3.74,.29-1.1,.79-1.99,1.5-2.66s1.63-1.07,2.75-1.19c1.12-.12,2.1,.08,2.94,.59,.84,.51,1.52,1.27,2.03,2.28,.52,1.01,.85,2.22,1,3.61,.15,1.38,.08,2.62-.21,3.73-.29,1.11-.79,2-1.5,2.67-.71,.68-1.63,1.07-2.75,1.19Zm-.25-2.34c.55-.06,1-.28,1.36-.67,.36-.39,.61-.94,.76-1.66,.15-.72,.17-1.6,.05-2.65-.11-1.06-.32-1.92-.61-2.58s-.66-1.15-1.09-1.46c-.43-.3-.92-.43-1.47-.37-.54,.06-.99,.28-1.35,.67-.37,.39-.63,.94-.77,1.65-.15,.72-.17,1.6-.05,2.66,.11,1.04,.32,1.9,.61,2.57,.3,.67,.66,1.16,1.11,1.46,.44,.3,.93,.43,1.46,.37Z"/><path class="cls-1" d="M53.67,42.57c-.63,.07-1.2-.04-1.72-.33-.52-.29-.94-.7-1.28-1.25-.33-.54-.54-1.17-.62-1.87-.08-.72,0-1.38,.2-1.98,.21-.6,.54-1.1,.99-1.49,.45-.39,.98-.62,1.61-.68,.64-.07,1.21,.04,1.72,.33s.93,.71,1.26,1.25c.33,.55,.53,1.18,.61,1.89,.08,.7,0,1.36-.22,1.96-.23,.6-.56,1.1-1,1.49-.44,.39-.96,.62-1.56,.68Zm-.19-1.74c.39-.04,.67-.27,.85-.68,.17-.41,.23-.91,.17-1.5-.06-.59-.22-1.06-.47-1.43-.25-.37-.58-.53-.98-.49-.39,.04-.68,.27-.86,.68-.18,.41-.24,.91-.17,1.5,.06,.59,.22,1.06,.48,1.43,.26,.37,.59,.53,.99,.49Zm1.09,8.01c-.21,.02-.44-.04-.69-.19-.25-.15-.4-.37-.43-.66-.02-.17,.03-.37,.13-.61l6.53-12.58c.2-.34,.45-.52,.75-.56,.22-.02,.46,.04,.7,.18,.25,.15,.38,.37,.42,.67,.02,.17-.03,.37-.13,.61l-6.53,12.58c-.2,.34-.45,.52-.75,.55Zm8.17-.71c-.6,.06-1.16-.05-1.68-.33-.52-.29-.95-.7-1.3-1.25-.35-.54-.56-1.17-.63-1.87-.08-.72,0-1.38,.2-1.98,.21-.6,.54-1.1,.99-1.49,.45-.39,.98-.62,1.61-.69,.64-.07,1.21,.04,1.72,.33,.51,.29,.93,.7,1.26,1.25,.33,.54,.53,1.18,.61,1.89,.08,.7,0,1.36-.22,1.96-.22,.6-.56,1.1-1,1.49-.44,.39-.96,.62-1.56,.68Zm-.19-1.74c.39-.04,.67-.27,.85-.68,.17-.42,.23-.91,.17-1.5-.06-.59-.22-1.06-.47-1.43-.25-.37-.58-.53-.98-.49-.39,.04-.68,.27-.86,.69-.18,.42-.24,.92-.18,1.5,.06,.59,.22,1.06,.48,1.43,.26,.37,.59,.53,.99,.49Z"/></g></g></svg>