<?xml version="1.0" encoding="UTF-8"?><svg id="Layer_2" xmlns="http://www.w3.org/2000/svg" viewBox="0 0 115.14 40.56"><defs><style>.cls-1{fill:#f6f1f0;}.cls-2{fill:#0d1b1e;}</style></defs><g id="Layer_1-2"><rect class="cls-2" x="0" y="0" width="115.14" height="40.56" rx="20.28" ry="20.28"/><circle class="cls-1" cx="20.51" cy="20.28" r="17.21"/><path class="cls-1" d="M57.38,4.07c8.94,0,16.21,7.27,16.21,16.21s-7.27,16.21-16.21,16.21-16.21-7.27-16.21-16.21S48.44,4.07,57.38,4.07m0-1c-9.5,0-17.21,7.7-17.21,17.21s7.7,17.21,17.21,17.21,17.21-7.7,17.21-17.21S66.88,3.07,57.38,3.07h0Z"/><path class="cls-1" d="M94.24,4.07c8.94,0,16.21,7.27,16.21,16.21s-7.27,16.21-16.21,16.21-16.21-7.27-16.21-16.21,7.27-16.21,16.21-16.21m0-1c-9.5,0-17.21,7.7-17.21,17.21s7.7,17.21,17.21,17.21,17.21-7.7,17.21-17.21S103.75,3.07,94.24,3.07h0Z"/></g></svg>